<?xml version="1.0" standalone="no"?>
<!DOCTYPE svg PUBLIC "-//W3C//DTD SVG 20010904//EN"
 "http://www.w3.org/TR/2001/REC-SVG-20010904/DTD/svg10.dtd">
<svg version="1.0" xmlns="http://www.w3.org/2000/svg"
 width="2317.000000pt" height="2317.000000pt" viewBox="0 0 2317.000000 2317.000000"
 preserveAspectRatio="xMidYMid meet">

<g transform="translate(0.000000,2317.000000) scale(0.100000,-0.100000)"
fill="#000000" stroke="none">
<path d="M0 11585 l0 -11585 11585 0 11585 0 0 11585 0 11585 -11585 0 -11585
0 0 -11585z m7280 1230 l0 -356 893 4 c986 3 929 0 1067 69 82 42 184 142 228
225 47 90 72 197 72 315 l0 98 285 0 285 0 0 -92 c0 -328 -106 -607 -313 -824
l-70 -74 70 -74 c207 -217 313 -496 313 -823 l0 -93 -285 0 -285 0 0 98 c0
292 -155 509 -420 589 -49 15 -150 17 -947 20 l-893 4 0 -356 0 -355 -285 0
-285 0 0 990 0 990 285 0 285 0 0 -355z m6400 70 l0 -285 -1312 0 c-1298 0
-1314 -1 -1358 -21 -49 -22 -120 -85 -120 -106 0 -11 257 -13 1385 -13 l1385
0 0 -280 0 -280 -1405 0 -1405 0 0 -70 0 -70 1415 0 1415 0 0 -285 0 -285
-1700 0 -1701 0 3 643 c4 723 1 691 84 864 117 246 351 420 624 466 14 2 625
5 1358 6 l1332 1 0 -285z m3580 0 l0 -285 -1312 0 -1313 0 -50 -24 c-47 -21
-115 -85 -115 -106 0 -7 502 -10 1385 -10 l1385 0 0 -280 0 -280 -1405 0
-1405 0 0 -70 0 -70 1415 0 1415 0 0 -285 0 -285 -1700 0 -1701 0 3 643 c4
723 1 691 83 863 118 246 352 421 625 467 14 2 625 5 1358 6 l1332 1 0 -285z
m3570 0 l0 -285 -123 0 c-195 0 -179 9 -472 -280 -297 -293 -348 -331 -530
-391 -68 -22 -85 -23 -520 -28 l-450 -6 -55 -27 c-30 -15 -73 -45 -95 -68
l-39 -40 1142 0 1142 0 0 -285 0 -285 -1700 0 -1700 0 0 284 0 284 138 4 c110
2 145 7 177 22 24 12 139 118 285 261 292 288 344 326 525 386 68 22 85 23
520 28 l450 6 55 27 c30 15 73 45 95 68 l39 40 -1142 0 -1142 0 0 285 0 285
1700 0 1700 0 0 -285z m-16260 -1045 l0 -880 135 0 135 0 0 80 c0 139 -61 246
-177 312 l-53 30 0 193 0 193 53 30 c116 66 177 173 177 312 l0 80 180 0 180
0 0 -75 c0 -174 -68 -356 -178 -475 l-60 -65 59 -62 c110 -118 179 -303 179
-478 l0 -75 -180 0 -180 0 0 -175 0 -175 -352 0 c-194 0 -471 -3 -615 -7
l-263 -6 0 381 0 382 175 0 175 0 0 -200 0 -200 130 0 130 0 0 700 0 700 -74
0 c-80 0 -119 -18 -160 -73 -20 -27 -21 -43 -24 -263 l-3 -234 -175 0 -174 0
-2 168 c-5 322 2 377 64 495 39 72 144 173 220 210 101 49 151 55 426 56 l252
1 0 -880z m-1130 130 l0 -220 370 0 370 0 0 -175 0 -175 -370 0 -370 0 0 -220
0 -220 -175 0 -175 0 0 615 0 615 175 0 175 0 0 -220z m4684 -967 c123 -47
217 -147 256 -272 17 -54 20 -92 20 -272 l0 -209 -705 0 -705 0 0 -105 0 -105
-140 0 -140 0 0 495 0 496 678 -3 c671 -3 678 -3 736 -25z m1809 -1 c81 -33
168 -116 209 -200 30 -61 33 -74 33 -163 0 -94 -1 -99 -42 -179 l-42 -82 25
-37 c37 -54 64 -153 64 -232 l0 -69 -139 0 -138 0 -6 60 c-6 69 -24 102 -70
130 -31 19 -54 20 -544 20 l-513 0 0 -105 0 -105 -140 0 -140 0 0 495 0 496
693 -3 692 -3 58 -23z m2017 -292 c0 -298 -1 -325 -21 -382 -44 -132 -148
-234 -278 -272 -48 -14 -140 -16 -723 -16 l-668 0 0 314 c0 284 2 320 20 377
46 150 166 258 320 288 25 5 339 9 698 10 l652 1 0 -320z m1780 175 l0 -145
-350 0 -350 0 0 -350 0 -350 -145 0 -145 0 0 350 0 350 -350 0 -350 0 0 145 0
145 845 0 845 0 0 -145z m1780 -175 c0 -298 -1 -325 -21 -382 -44 -132 -148
-234 -278 -272 -48 -14 -140 -16 -723 -16 l-668 0 0 314 c0 284 2 320 20 377
46 150 166 258 320 288 25 5 339 9 698 10 l652 1 0 -320z m1567 286 c112 -51
196 -163 210 -276 l6 -50 -142 0 c-126 0 -142 2 -148 18 -3 9 -13 25 -21 35
-14 16 -51 17 -510 17 -546 0 -528 2 -568 -64 -16 -26 -19 -51 -19 -148 0
-102 3 -120 21 -145 47 -64 41 -63 559 -63 259 0 480 3 493 6 12 4 29 19 38
35 l15 29 141 0 141 0 -7 -47 c-9 -67 -59 -164 -107 -208 -23 -21 -67 -49 -98
-64 l-56 -26 -534 -3 c-467 -2 -541 0 -590 14 -131 37 -235 139 -280 272 -30
87 -30 311 -1 403 46 150 165 257 320 288 25 5 277 9 560 8 l515 -2 62 -29z
m1993 -286 c0 -298 -1 -325 -21 -382 -44 -132 -148 -234 -278 -272 -48 -14
-140 -16 -723 -16 l-668 0 0 314 c0 284 2 320 20 377 46 150 166 258 320 288
25 5 339 9 698 10 l652 1 0 -320z m500 175 c0 -141 -1 -145 -21 -145 -31 0
-74 -29 -95 -64 -17 -27 -19 -52 -19 -191 l0 -160 560 0 560 0 3 33 3 32 140
0 139 0 0 -175 0 -175 -845 0 -845 0 0 314 c0 280 2 321 19 375 46 148 160
254 311 287 98 22 90 33 90 -131z"/>
<path d="M6992 10638 l3 -103 560 0 560 0 -1 56 c-1 64 -23 108 -64 133 -25
14 -84 16 -544 16 l-517 0 3 -102z"/>
<path d="M8772 10638 l3 -103 490 -3 c270 -2 509 0 532 3 74 11 115 76 88 141
-28 67 -4 64 -588 64 l-528 0 3 -102z"/>
<path d="M10609 10723 c-56 -35 -64 -63 -64 -238 l0 -160 505 -3 c558 -2 547
-3 594 61 19 26 21 45 24 193 l4 164 -519 0 c-461 -1 -521 -2 -544 -17z"/>
<path d="M14169 10723 c-56 -35 -64 -63 -64 -238 l0 -160 505 -3 c558 -2 547
-3 594 61 19 26 21 45 24 193 l4 164 -519 0 c-461 -1 -521 -2 -544 -17z"/>
<path d="M17729 10723 c-56 -35 -64 -63 -64 -238 l0 -160 505 -3 c558 -2 547
-3 594 61 19 26 21 45 24 193 l4 164 -519 0 c-461 -1 -521 -2 -544 -17z"/>
</g>
</svg>
